<?xml version="1.0" standalone="no"?>
<!DOCTYPE svg PUBLIC "-//W3C//DTD SVG 20010904//EN"
 "http://www.w3.org/TR/2001/REC-SVG-20010904/DTD/svg10.dtd">
<svg version="1.0" xmlns="http://www.w3.org/2000/svg"
 width="2880.000000pt" height="1800.000000pt" viewBox="0 0 2880.000000 1800.000000"
 preserveAspectRatio="xMidYMid meet">
<metadata>
Created by potrace 1.13, written by Peter Selinger 2001-2015
</metadata>
<g transform="translate(0.000000,1800.000000) scale(0.100000,-0.100000)"
fill="#000000" stroke="none">
<path d="M0 13981 l0 -4019 113 -21 c221 -41 922 -172 1457 -271 300 -56 723
-135 940 -175 217 -41 845 -158 1395 -260 550 -102 1432 -266 1960 -365 1812
-338 2410 -449 2518 -468 l107 -19 0 1228 0 1229 5955 0 5955 0 0 -1221 0
-1221 23 5 c12 3 51 11 87 17 59 10 710 131 970 180 58 11 407 76 775 144 369
69 938 175 1265 236 1125 210 1618 302 2985 556 754 140 1548 288 1765 329
217 41 425 79 463 85 l67 12 0 4019 0 4019 -14400 0 -14400 0 0 -4019z" fill="#0a0016"/>
<path d="M0 9212 l0 -250 163 -30 c89 -17 551 -103 1027 -192 476 -89 1032
-192 1235 -230 951 -177 1588 -296 2010 -375 253 -47 543 -101 645 -120 102
-19 390 -73 640 -119 2084 -389 2549 -476 2654 -496 54 -11 102 -20 107 -20 5
0 9 110 9 249 l0 249 -33 6 c-44 9 -2995 561 -3317 620 -113 21 -1649 307
-3710 692 -523 97 -915 170 -1180 219 -102 19 -200 37 -217 41 l-33 7 0 -251z" fill="#9a910f"/>
<path d="M28755 9455 c-5 -3 -95 -20 -200 -39 -219 -40 -542 -100 -1185 -220
-2066 -386 -3605 -673 -3760 -701 -102 -19 -351 -66 -555 -104 -203 -38 -884
-165 -1512 -282 l-1143 -213 0 -249 0 -249 28 6 c15 3 81 15 147 27 115 19
397 72 1535 284 283 53 720 134 970 181 250 46 538 100 640 119 102 19 392 73
645 120 422 79 1059 198 2010 375 204 38 759 141 1235 230 476 89 938 175
1028 192 l162 30 0 249 c0 231 -1 249 -17 248 -10 0 -22 -2 -28 -4z" fill="#9a910f"/>
</g>
</svg>
